<mxfile host="app.diagrams.net" modified="2023-05-06T16:01:26.122Z" agent="Mozilla/5.0 (Windows NT 10.0; Win64; x64) AppleWebKit/537.36 (KHTML, like Gecko) Chrome/109.0.0.0 Safari/537.36" version="21.2.9" etag="1iEN3PaepB5OoDEmhdEK" type="github">
  <diagram name="PÃ¡gina-1" id="EWx5Tkmdxlt9NWtOV6Pu">
    <mxGraphModel>
      <root>
        <mxCell id="0" />
        <mxCell id="1" parent="0" />
      </root>
    </mxGraphModel>
  </diagram>
</mxfile>
